HIERARCHY
ROOT Hips
{
	OFFSET 0.00000 0.00000 0.00000
	CHANNELS 6 Xposition Yposition Zposition Yrotation Zrotation Xrotation 
	JOINT Lumbar
	{
		OFFSET 0 0 0
		CHANNELS 3 Zrotation Xrotation Yrotation
		JOINT Neck
		{
			OFFSET 0.00 0.2701 0.00
			CHANNELS 3 Zrotation Xrotation Yrotation
			End Site
			{
				OFFSET 0.00 0.1379 0.00
			}
		}
		JOINT RightShoulder
		{
			OFFSET 0.0119 0.2289 0.1181
			CHANNELS 3 Zrotation Xrotation Yrotation
			JOINT RightElbow
			{
				OFFSET 0.00 -0.1475 0.00
				CHANNELS 2 Zrotation Yrotation
				JOINT RightWrist
				{
					OFFSET 0.00 -0.1605 0.00
					CHANNELS 2 Zrotation Xrotation
					End Site
					{
						OFFSET 0.0040 -0.1068 0.0006
					}
				}
			}
		}
		JOINT LeftShoulder
		{
			OFFSET 0.0119 0.2289 -0.1181
			CHANNELS 3 Zrotation Xrotation Yrotation
			JOINT LeftElbow
			{
				OFFSET 0.00 -0.1475 0.00
				CHANNELS 2 Zrotation Yrotation
				JOINT LeftWrist
				{
					OFFSET 0.00 -0.1605 0.00
					CHANNELS 2 Zrotation Xrotation
					End Site
					{
						OFFSET 0.0040 -0.1068 -0.0006
					}
				}
			}
		}
	}
	JOINT RightHip
	{
		OFFSET 0.0316 -0.0424 0.0458
		CHANNELS 3 Zrotation Xrotation Yrotation
		JOINT RightKnee
		{
			OFFSET 0.00 -0.2438 0.00
			CHANNELS 1 Zrotation
			JOINT RightAnkle
			{
				OFFSET 0.00 -0.2449 0.00
				CHANNELS 3 Zrotation Xrotation Yrotation
				End Site
				{
					OFFSET 0.1237 -0.0542 0.0051
				}
			}
		}
	}
	JOINT LeftHip
	{
		OFFSET 0.0316 -0.0424 -0.0458
		CHANNELS 3 Zrotation Xrotation Yrotation
		JOINT LeftKnee
		{
			OFFSET 0.00 -0.2438 0.00
			CHANNELS 1 Zrotation
			JOINT LeftAnkle
			{
				OFFSET 0.00 -0.2449 0.00
				CHANNELS 3 Zrotation Xrotation Yrotation
				End Site
				{
					OFFSET 0.1237 -0.0542 -0.0051
				}
			}
		}
	}
}
MOTION
Frames: 19
Frame Time: 0.02
0.12927 0.0125 0.09611 597.39089 -31.546 -0.90533 28.34296 7.4567 -10.68578 -25.80445 16.98584 -0.83079 -20.58699 -12.50284 -26.60704 19.42662 79.69681 -4.95294 0.42318 -38.5408 38.43354 -10.65611 74.66378 -78.1875 -4.6807 -0.69362 36.44276 -6.81169 -5.53688 -23.5446 -9.76972 -3.23966 -2.48341 25.51379 3.66763 4.27852 -29.03871 -7.26984 3.8865 2.70729
0.12788 0.01241 0.09789 599.37429 -31.57372 -0.28352 28.03473 7.89757 -10.42056 -25.9967 17.46585 -0.83079 -20.11531 -12.6393 -26.70425 19.3396 79.73017 -5.00843 0.18396 -39.98737 37.80252 -9.88108 73.9007 -78.23996 -4.65118 -0.69653 36.89407 -7.123 -4.95347 -23.481 -9.74762 -3.21079 -2.46323 25.42277 3.63723 4.23178 -28.81487 -7.22982 3.70673 2.59933
0.12627 0.01244 0.09956 601.35387 -31.67645 0.3691 27.76069 8.41057 -10.12946 -26.15898 17.81507 -0.83079 -19.58992 -12.76275 -26.89261 19.39884 79.7705 -5.05296 -0.03725 -41.42499 37.16504 -8.98836 72.8228 -78.36332 -4.57534 -0.6974 37.39662 -7.44359 -4.38869 -23.29771 -9.7267 -3.16431 -2.43213 25.4283 3.59714 4.11891 -28.55807 -7.22651 3.53291 2.49213
0.12476 0.01241 0.10125 603.34248 -31.71188 1.01122 27.43014 8.89922 -9.85321 -26.32335 18.21554 -0.83079 -19.07933 -12.89643 -27.0504 19.39539 79.80697 -5.10464 -0.26864 -42.83802 36.53612 -8.15304 71.87292 -78.46719 -4.51132 -0.6973 37.83805 -7.7627 -3.83059 -23.16283 -9.70613 -3.12294 -2.40469 25.36051 3.55885 4.02514 -28.31366 -7.20788 3.35539 2.38485
0.12327 0.01241 0.10305 605.30686 -31.88523 1.63948 27.26347 9.35393 -9.56472 -26.53206 18.66103 -0.83079 -18.604 -13.01134 -27.16094 19.37439 79.84682 -5.15128 -0.49434 -44.38214 35.87756 -7.28701 70.98501 -78.51206 -4.49159 -0.7048 38.43842 -8.07121 -3.20133 -23.05209 -9.68285 -3.09311 -2.38248 25.41569 3.5309 3.97268 -28.07761 -7.18368 3.18105 2.27613
0.12168 0.01236 0.1046 607.31899 -31.79399 2.3045 26.77232 9.89535 -9.29588 -26.64314 18.97795 -0.83079 -18.04432 -13.16335 -27.39167 19.42461 79.88121 -5.2041 -0.7264 -45.64718 35.28269 -6.46369 69.89626 -78.69716 -4.36691 -0.69604 38.72349 -8.40407 -2.72733 -22.86563 -9.66497 -3.03631 -2.34742 25.24331 3.47944 3.82197 -27.81841 -7.17975 3.0019 2.17068
0.11997 0.01217 0.10543 609.45399 -30.90403 3.0517 25.31166 10.6646 -9.07966 -26.48922 18.96602 -0.83079 -17.26676 -13.40998 -27.93664 19.64463 79.89755 -5.27796 -0.98233 -46.14285 34.84988 -5.7723 68.30028 -79.27072 -3.95948 -0.64417 38.08479 -8.79608 -2.67859 -22.46881 -9.66329 -2.89708 -2.27313 24.35524 3.36435 3.39628 -27.48998 -7.2228 2.80806 2.07479
0.11814 0.01191 0.10601 611.63712 -29.75396 3.83653 23.53578 11.51731 -8.88507 -26.23895 18.8272 -0.83079 -16.40641 -13.69644 -28.59831 19.93022 79.90832 -5.35743 -1.24445 -46.35611 34.48457 -5.133 66.51854 -79.98041 -3.44805 -0.57584 37.13439 -9.21281 -2.78561 -22.00602 -9.6666 -2.73359 -2.18747 23.24597 3.22615 2.8781 -27.14223 -7.28504 2.60943 1.98217
0.11631 0.01166 0.10672 613.80473 -28.75553 4.61182 21.94751 12.32777 -8.68601 -26.03542 18.75075 -0.83079 -15.58373 -13.97175 -29.20444 20.17992 79.92241 -5.43318 -1.50229 -46.69854 34.09954 -4.48081 64.84093 -80.61666 -2.98615 -0.51426 36.35256 -9.62228 -2.82257 -21.59236 -9.6665 -2.58909 -2.11113 22.27918 3.09939 2.41585 -26.81207 -7.33841 2.41289 1.88753
0.11472 0.0115 0.10735 615.94901 -27.61947 5.35711 20.17355 13.15918 -8.46474 -25.81918 18.65655 -0.83079 -14.75961 -14.21706 -29.82641 20.45929 79.93342 -5.51435 -1.76627 -47.03968 33.66938 -3.7769 63.06855 -81.3044 -2.51297 -0.45563 35.45792 -10.01676 -2.85989 -21.091 -9.67128 -2.4101 -2.01673 21.13906 2.96855 1.89287 -26.44288 -7.39342 2.2163 1.79482
0.11261 0.01114 0.10809 618.14896 -26.70622 6.17238 18.71051 13.96561 -8.29359 -25.60582 18.56273 -0.83079 -13.91863 -14.53476 -30.43929 20.69193 79.94944 -5.58468 -2.01851 -47.31359 33.34757 -3.19698 61.4543 -81.91599 -2.03943 -0.38703 34.72483 -10.44641 -2.92959 -20.76159 -9.66704 -2.29773 -1.95759 20.30574 2.84058 1.47492 -26.15167 -7.44942 2.01935 1.69929
0.10911 0.01022 0.10919 620.52833 -26.48075 7.18063 18.1885 14.68347 -8.26944 -25.43369 18.57028 -0.83079 -13.06096 -15.04002 -31.02045 20.76752 79.98041 -5.63197 -2.24209 -47.49535 33.32444 -2.92866 60.31882 -82.28784 -1.58721 -0.29455 34.5017 -10.98239 -3.08331 -20.89343 -9.63704 -2.37272 -1.99702 20.37706 2.72879 1.37408 -26.07388 -7.50096 1.81612 1.5914
0.1051 0.00909 0.11039 622.95518 -26.48636 8.25619 17.98947 15.37239 -8.29248 -25.26603 18.57003 -0.83079 -12.18862 -15.61717 -31.58373 20.79571 80.01663 -5.66648 -2.45253 -47.61448 33.40535 -2.78773 59.35219 -82.57804 -1.13848 -0.19272 34.45326 -11.55005 -3.25889 -21.20576 -9.5978 -2.51607 -2.07266 20.76386 2.62049 1.38219 -26.0769 -7.55336 1.61373 1.48118
0.10133 0.00807 0.11155 625.33559 -26.38011 9.29492 17.63844 16.07411 -8.28496 -25.09024 18.5289 -0.83079 -11.31573 -16.16331 -32.14058 20.85223 80.05057 -5.7017 -2.66592 -47.74653 33.42782 -2.60039 58.31066 -82.90185 -0.69108 -0.09534 34.33359 -12.09306 -3.40189 -21.45682 -9.56242 -2.62995 -2.13285 21.0032 2.50861 1.33718 -26.04712 -7.60651 1.41535 1.37459
0.09755 0.00698 0.1127 627.82224 -26.29413 10.36131 17.29698 16.78185 -8.31678 -24.93725 18.67189 -0.83079 -10.46642 -16.70435 -32.76369 20.8809 80.08386 -5.75935 -2.89321 -47.9351 33.4986 -2.36457 57.25021 -83.2422 -0.22987 0.00366 34.1715 -12.68004 -3.64256 -21.62195 -9.52827 -2.73652 -2.18852 21.25116 2.40333 1.30192 -25.99901 -7.65454 1.19884 1.25758
0.09365 0.00599 0.11388 630.09877 -26.22367 11.38561 17.01823 17.46713 -8.27745 -24.73854 18.42982 -0.83079 -9.57056 -17.27193 -33.24213 20.95739 80.11982 -5.76629 -3.08715 -47.99382 33.49401 -2.26149 56.27735 -83.53071 0.20307 0.10103 34.13973 -13.18287 -3.68717 -22.00468 -9.48978 -2.87451 -2.26218 21.56022 2.28669 1.27619 -26.00985 -7.71445 1.01961 1.16128
0.08956 0.00528 0.11508 631.77941 -26.14481 12.27637 16.82004 18.11313 -8.03096 -24.4179 17.14114 -0.83079 -8.50973 -17.90055 -33.33329 21.16062 80.16206 -5.64407 -3.20281 -47.71851 33.24305 -2.4741 55.46039 -83.66162 0.53444 0.19367 34.45711 -13.4432 -3.14883 -22.98868 -9.43757 -3.086 -2.37837 21.95199 2.12702 1.22764 -26.1532 -7.79577 0.9498 1.1261
0.08537 0.00467 0.11629 633.24811 -26.07366 13.12217 16.67828 18.73397 -7.71081 -24.05067 15.46488 -0.83079 -7.41179 -18.55227 -33.27818 21.41649 80.20678 -5.46997 -3.28357 -47.31448 32.9145 -2.81849 54.73641 -83.74796 0.84081 0.28384 34.8951 -13.61808 -2.41895 -24.1774 -9.38219 -3.32624 -2.51117 22.39767 1.95784 1.18985 -26.35544 -7.89089 0.91644 1.11128
0.08119 0.00403 0.11751 634.81545 -25.9971 13.98927 16.52077 19.35586 -7.42394 -23.70161 13.95476 -0.83079 -6.3558 -19.18959 -33.2833 21.6589 80.25025 -5.31432 -3.37301 -46.96467 32.62977 -3.11625 53.99833 -83.87778 1.17493 0.3737 35.25858 -13.83349 -1.79904 -25.24361 -9.33064 -3.55121 -2.63532 22.82488 1.80037 1.16201 -26.5373 -7.98704 0.86184 1.08481
